<svg width="83" height="28" viewBox="0 0 83 28" fill="none" xmlns="http://www.w3.org/2000/svg">
<g clip-path="url(#clip0_27_287)">
<path d="M66.7695 7.06445H64.4666C64.2504 7.06445 64.0752 7.2318 64.0752 7.43814V21.7264C64.0752 21.9328 64.2504 22.1002 64.4666 22.1002H66.7695C66.9856 22.1002 67.1608 21.9328 67.1608 21.7264V7.43814C67.1608 7.2318 66.9856 7.06445 66.7695 7.06445Z" fill="#00683F"/>
<path d="M66.7695 1.76367H64.4666C64.2504 1.76367 64.0752 1.93098 64.0752 2.13738V4.35519C64.0752 4.56159 64.2504 4.7289 64.4666 4.7289H66.7695C66.9856 4.7289 67.1608 4.56159 67.1608 4.35519V2.13738C67.1608 1.93098 66.9856 1.76367 66.7695 1.76367Z" fill="#00683F"/>
<path d="M69.6612 22.0977C69.4447 22.0977 69.2695 21.93 69.2695 21.724V2.13152C69.2695 1.92546 69.4447 1.75781 69.6612 1.75781H71.9637C72.1794 1.75781 72.3553 1.92546 72.3553 2.13152V7.07125H75.9675C76.0918 7.07125 76.188 7.11898 76.2396 7.20397C76.289 7.28779 76.2856 7.39491 76.2306 7.48224C76.0953 7.69759 75.0509 9.28089 74.9176 9.45789C74.7692 9.65578 74.6214 9.65578 74.4517 9.65578L72.3553 9.65344V21.7228C72.3553 21.9289 72.1794 22.0965 71.9637 22.0965H69.6612V22.0977Z" fill="#00683F"/>
<path d="M46.4757 27.1951C46.2478 27.1951 46.0625 27.0182 46.0625 26.8005V14.5158C46.0625 12.3806 46.911 10.384 48.4532 8.895C49.9869 7.41298 52.0325 6.5957 54.2135 6.5957C58.7085 6.5957 62.3647 10.1989 62.3647 14.6276C62.3647 19.0562 58.8864 22.6594 54.4452 22.6594C53.4565 22.6594 51.8924 22.3858 50.7378 21.6139C50.7329 21.6104 50.6013 21.5313 50.5342 21.4218C50.4769 21.3287 50.4781 21.2577 50.4781 21.189V21.1576C50.4671 20.3881 50.4781 18.5952 50.4781 18.5777C50.4781 18.4415 50.5611 18.3426 50.6769 18.3426C50.75 18.3426 50.828 18.3798 50.9036 18.4497C51.8899 19.3158 52.9822 19.7012 54.4452 19.7012C57.2248 19.7012 59.2437 17.5672 59.2437 14.6276C59.2437 11.8545 57.0809 9.76234 54.2135 9.76234C51.3462 9.76234 49.2261 11.731 49.1871 14.4425C49.1871 14.4425 49.1737 23.5081 49.1737 24.1473C49.1737 24.3719 49.1737 24.4395 48.9774 24.741C48.9372 24.8027 48.7421 25.0612 48.5153 25.3603C48.1557 25.8365 47.7071 26.4291 47.4852 26.7539C47.1828 27.1951 47.0036 27.1951 46.8134 27.1951H46.4757Z" fill="#00683F"/>
<path d="M20.2867 22.607C18.1313 22.607 16.0856 21.7571 14.5727 20.2612C13.0573 18.7616 12.249 16.7825 12.249 14.6415C12.249 10.313 15.9295 6.65625 20.2867 6.65625C23.0773 6.65625 25.1973 8.13246 26.4835 9.37001C26.5994 9.48063 27.1735 10.0557 27.1662 10.4912C27.1614 10.8264 27.0004 11.0884 26.931 11.2001L24.4269 15.2783C24.3013 15.4646 24.0355 15.687 23.7051 15.687H17.245C17.1365 15.687 17.0487 15.6428 17.0024 15.5659C16.9561 15.4867 16.9597 15.3889 17.0134 15.3028C17.1499 15.0851 17.9996 13.7986 18.1362 13.6182C18.2849 13.4203 18.4324 13.4203 18.6019 13.4203H22.9152C23.1699 13.4203 23.254 13.3935 23.3662 13.2037C23.3662 13.2037 24.0416 12.0616 24.2099 11.7834C24.2684 11.6868 24.2879 11.5424 24.1672 11.4295C22.5555 9.93351 21.0426 9.70999 20.2843 9.70999C17.4218 9.70999 15.2627 11.851 15.2627 14.6904C15.2627 16.0677 15.7345 17.332 16.5903 18.2506C17.5083 19.2366 18.786 19.7676 20.2843 19.7676C21.657 19.7676 22.8164 19.6767 24.2038 18.2227C24.9243 17.4682 25.7996 16.0199 25.8081 16.006C25.8081 16.006 27.9428 12.4191 28.6487 11.2351C28.9681 10.6996 29.5984 9.83456 30.2896 9.18724C31.5185 8.03351 33.5703 6.65742 36.3633 6.65742C40.8119 6.65742 44.4315 10.2723 44.4315 14.7161C44.4315 19.1598 40.9265 22.6035 36.4523 22.607C33.8629 22.6094 31.41 21.2449 30.3384 19.8723C30.0812 19.5429 29.691 19.0469 29.6801 18.6522C29.6727 18.3902 29.763 18.1388 29.8434 18.0026C30.2153 17.3728 30.9906 16.0875 32.1586 14.1572C32.3219 13.9197 32.5999 13.7614 32.8657 13.7579L39.3514 13.7637C39.4599 13.7637 39.5453 13.8056 39.5891 13.8813C39.6355 13.9593 39.6306 14.0571 39.5757 14.1433C39.4428 14.3551 38.6017 15.6463 38.4627 15.8302C38.3139 16.0281 38.1664 16.0281 37.9969 16.0281C37.9969 16.0281 33.8605 16.0258 33.7251 16.0258C33.4703 16.0258 33.3911 16.0514 33.274 16.2412C33.0559 16.5974 32.3987 17.6754 32.3987 17.6754C32.3305 17.7872 32.3354 17.9083 32.4109 18.0247C32.5267 18.1831 32.7961 18.4392 32.7961 18.4392C33.63 19.2751 35.0101 19.7664 36.3621 19.7664C39.3063 19.7664 41.3886 17.6184 41.3886 14.6904C41.3886 11.9441 39.1331 9.70999 36.3621 9.70999C34.8504 9.70999 33.5069 10.2758 32.3683 11.3934C31.7185 12.0314 31.2222 12.851 30.8236 13.5099C30.8236 13.5099 28.5767 17.382 28.1562 18.0399C26.8249 20.1238 24.3781 22.6094 20.2831 22.6094L20.2867 22.607Z" fill="#00683F"/>
<path d="M3.10051 21.7801C3.10051 21.9862 2.92496 22.1539 2.70917 22.1539H0.414777C0.198992 22.1539 0.0234375 21.9862 0.0234375 21.7801V21.6126V4.78509C0.0234375 4.5604 0.0234375 4.49288 0.219716 4.19135C0.259948 4.12964 1.4364 2.5766 1.65951 2.25178C1.96185 1.81055 2.14106 1.81055 2.33125 1.81055H2.67382C2.90179 1.81055 3.0871 1.98751 3.0871 2.20522C3.0871 2.20522 3.09442 12.5492 3.09442 13.0708C3.09442 13.2721 3.21023 13.3444 3.30898 13.3444C3.39554 13.3444 3.48697 13.2943 3.57109 13.2012C4.878 11.7529 8.69386 7.51052 8.69386 7.51052C8.92796 7.2497 9.37781 7.04482 9.71793 7.04482H12.2025C12.3598 7.04482 12.4951 7.117 12.5488 7.22874C12.6012 7.33937 12.5658 7.46861 12.45 7.59435L6.74082 13.9485C6.47871 14.2396 6.47749 14.4212 6.73472 14.6668C6.78227 14.7158 11.7673 19.8395 13.4302 21.5578C13.5338 21.6649 13.5631 21.793 13.5106 21.9082C13.4533 22.034 13.3095 22.119 13.1546 22.119H10.3506C10.0069 22.119 9.53386 21.9141 9.29488 21.6637C9.25097 21.6195 4.99015 17.2572 3.52477 15.7065C3.45527 15.632 3.38213 15.5947 3.3102 15.5947C3.25899 15.5947 3.21145 15.6146 3.17488 15.6506C3.12489 15.6995 3.09685 15.774 3.09929 15.8567V21.779L3.10051 21.7801Z" fill="#00683F"/>
<path d="M79.673 4.24442H79.2731V1.71694H80.2797C80.905 1.71694 81.2149 1.9358 81.2149 2.43525C81.2149 2.88696 80.9187 3.08488 80.5298 3.13144L81.2822 4.24442H80.8322L80.1361 3.14774H79.6737L79.673 4.24442ZM80.1533 2.82526C80.4934 2.82526 80.7971 2.80197 80.7971 2.41429C80.7971 2.10112 80.5003 2.04291 80.2199 2.04291H79.673V2.82526H80.1533ZM77.8281 2.97544C77.8281 1.71694 78.8973 0.789062 80.1595 0.789062C81.421 0.789062 82.4792 1.71694 82.4792 2.97544C82.4792 4.23395 81.41 5.17229 80.1595 5.17229C78.9083 5.17229 77.8281 4.24442 77.8281 2.97544ZM80.1595 4.80674C81.1977 4.80674 82.0174 4.03021 82.0174 2.97544C82.0174 1.92067 81.1977 1.15346 80.1595 1.15346C79.1206 1.15346 78.2905 1.9358 78.2905 2.97544C78.2905 4.01508 79.1096 4.80674 80.1595 4.80674Z" fill="#00683F"/>
</g>
<defs>
<clipPath id="clip0_27_287">
<rect width="82.4531" height="27.4844" fill="white" transform="translate(0.0234375 0.257812)"/>
</clipPath>
</defs>
</svg>
