<svg width="103" height="18" viewBox="0 0 103 18" fill="none" xmlns="http://www.w3.org/2000/svg">
<g clip-path="url(#clip0_27_297)">
<mask id="mask0_27_297" style="mask-type:luminance" maskUnits="userSpaceOnUse" x="0" y="0" width="103" height="18">
<path d="M102.59 0.191833H0.410156V17.8394H102.59V0.191833Z" fill="white"/>
</mask>
<g mask="url(#mask0_27_297)">
<path d="M8.05665 12.8634L20.54 0.397758C20.6687 0.269063 20.8433 0.196765 21.0253 0.196765C21.2073 0.196765 21.3819 0.269063 21.5106 0.397758L25.5825 4.46134C25.851 4.7307 25.851 5.16632 25.5825 5.43196L13.5859 17.4119C13.3165 17.6803 12.88 17.6803 12.6116 17.4119L8.05572 12.8607V12.8634H8.05665ZM0.616805 5.43474C0.552859 5.37113 0.502116 5.29551 0.46749 5.21223C0.432864 5.12894 0.415039 5.03963 0.415039 4.94944C0.415039 4.85924 0.432864 4.76993 0.46749 4.68665C0.502116 4.60336 0.552859 4.52774 0.616805 4.46413L4.68782 0.397758C4.95718 0.1284 5.39372 0.1284 5.66215 0.397758L11.9735 6.69794L6.92999 11.7349L0.617734 5.43474H0.616805Z" fill="black"/>
<path d="M34.4941 2.49457H36.9852L40.9141 12.9261L44.843 2.4955H47.3351L42.2563 15.8928H39.572L34.4941 2.49457ZM55.1696 14.4568C55.1696 14.4568 53.925 16.0832 51.2407 16.0832C48.1747 16.0832 45.8099 13.4054 46.3301 10.3598C46.7332 8.00804 48.862 6.273 51.251 6.32316C53.8795 6.37703 55.7464 8.46223 55.7464 11.0109C55.7464 11.5868 55.6499 12.0651 55.6499 12.0651H48.6558C48.8871 13.1184 49.8057 14.0742 51.3401 14.0742C52.9684 14.0742 53.9269 12.9057 53.9269 12.9057L55.1724 14.4568H55.1696ZM53.3492 10.2456C53.0622 9.19135 52.294 8.42601 51.0485 8.42601C49.7063 8.42601 48.9401 9.19135 48.654 10.2465L53.3492 10.2456ZM57.5289 6.51357H59.7339V7.85385H59.8295C59.8295 7.85385 60.789 6.32316 62.5138 6.32316H62.8965V8.71487C62.8965 8.71487 62.6104 8.6192 62.1302 8.6192C60.789 8.6192 59.7357 9.67248 59.7357 11.2998V15.8928H57.5316V6.51357H57.5289ZM64.2795 2.49457H66.4836V10.631L70.2193 6.51635H72.9036L69.3574 10.4406L73.094 15.8956H70.6029L67.9186 11.9713L66.4808 13.5967V15.8956H64.2767V2.49457H64.2795ZM79.618 14.6491H79.5214C79.5214 14.6491 78.6595 16.086 76.7443 16.086C74.829 16.086 73.6773 14.8414 73.6773 13.4054C73.6773 11.8747 74.8262 10.7248 76.4545 10.4378L79.618 9.86289C79.618 9.19414 78.8517 8.42601 77.7966 8.42601C76.3969 8.42601 75.4959 9.57403 75.4959 9.57403L74.1538 8.23374C74.1538 8.23374 75.4959 6.32037 77.8904 6.32037C80.2849 6.32037 81.8193 8.00525 81.8193 10.0533V15.8909H79.6162V14.6463L79.618 14.6491ZM79.618 11.5858L77.4139 11.9685C76.2641 12.1784 75.8814 12.5444 75.8814 13.1165C75.8814 13.6887 76.4573 14.2636 77.3201 14.2636C78.5647 14.2636 79.6208 13.2104 79.6208 11.8719V11.5858H79.618ZM90.6923 14.5534H90.5967C90.5967 14.5534 89.7329 16.0832 87.5297 16.0832C85.3256 16.0832 83.3129 14.0742 83.3129 11.2032C83.3129 8.33312 85.3247 6.32316 87.5297 6.32316C89.7338 6.32316 90.5967 7.85385 90.5967 7.85385H90.6923V2.49457H92.8974V15.8928H90.6923V14.5534ZM90.6923 11.2032C90.6923 9.67248 89.5434 8.5226 88.1056 8.5226C86.6668 8.5226 85.5179 9.67062 85.5179 11.2032C85.5179 12.7357 86.6668 13.8837 88.1056 13.8837C89.5434 13.8837 90.6923 12.7357 90.6923 11.2032ZM100.374 14.6491H100.279C100.279 14.6491 99.4158 16.086 97.5006 16.086C95.5854 16.086 94.4345 14.8414 94.4345 13.4054C94.4345 11.8747 95.5835 10.7248 97.2117 10.4378L100.374 9.86289C100.374 9.19414 99.609 8.42601 98.5539 8.42601C97.156 8.42601 96.2532 9.57403 96.2532 9.57403L94.911 8.23374C94.911 8.23374 96.2532 6.32037 98.6477 6.32037C101.042 6.32037 102.577 8.00525 102.577 10.0533V15.8909H100.372V14.6463L100.374 14.6491ZM100.374 11.5858L98.1703 11.9685C97.0213 12.1784 96.6386 12.5444 96.6386 13.1165C96.6386 13.6887 97.2145 14.2636 98.0764 14.2636C99.322 14.2636 100.377 13.2104 100.377 11.8719V11.5858H100.374Z" fill="black"/>
</g>
</g>
<defs>
<clipPath id="clip0_27_297">
<rect width="102.18" height="17.6476" fill="white" transform="translate(0.410156 0.176208)"/>
</clipPath>
</defs>
</svg>
